<?xml version="1.0" encoding="utf-8"?>
<!-- Generator: Adobe Illustrator 18.0.0, SVG Export Plug-In . SVG Version: 6.00 Build 0)  -->
<!DOCTYPE svg PUBLIC "-//W3C//DTD SVG 1.1//EN" "http://www.w3.org/Graphics/SVG/1.1/DTD/svg11.dtd">
<svg version="1.1" id="レイヤー_1" xmlns="http://www.w3.org/2000/svg" xmlns:xlink="http://www.w3.org/1999/xlink" x="0px"
	 y="0px" viewBox="0 0 62 62" enable-background="new 0 0 62 62" xml:space="preserve">
<g>
	<g>
		<path fill="#FFFFFF" d="M-81-537c0-0.6-0.4-1-1-1h-127c-0.6,0-1,0.4-1,1v127c0,0.6,0.4,1,1,1h127c0.6,0,1-0.4,1-1V-537z M-92-420
			h-107v-108h107V-420z"/>
		<text transform="matrix(1 0 0 1 -185.5632 -444.4492)"><tspan x="0" y="0" fill="#FFFFFF" font-family="'KozGoPr6N-Bold-83pv-RKSJ-H'" font-size="81.6931" letter-spacing="-4">P</tspan><tspan x="44.1" y="0.4" fill="#FFFFFF" font-family="'KozGoPr6N-Bold-83pv-RKSJ-H'" font-size="75.2367">s</tspan></text>
	</g>
	<g>
		<path fill="#FFFFFF" d="M-260.2-449.1v-13c0-0.6-0.4-1-1-1h-14c-0.6,0-1-0.4-1-1v-14c0-0.6,0.4-1,1-1h14c0.6,0,1-0.4,1-1v-13
			c0-0.8,0.9-1.3,1.6-0.8l21.4,22.1c0.5,0.4,0.5,1.2,0,1.6l-21.4,22.1C-259.2-447.8-260.2-448.3-260.2-449.1z"/>
	</g>
	<g>
		<path fill="#FFFFFF" d="M-304.1-539h-75.7c-1.2,0-2.1,1-2.1,2.1v125.7c0,1.2,1,2.1,2.1,2.1h75.7c1.2,0,2.1-1,2.1-2.1v-125.7
			C-302-538-303-539-304.1-539z M-342.1-416.2c-3.6,0-6.5-2.9-6.5-6.5s2.9-6.5,6.5-6.5s6.5,2.9,6.5,6.5S-338.5-416.2-342.1-416.2z
			 M-310-434h-64v-94h64V-434z"/>
		<path fill="#FFFFFF" d="M-321.3-493h-7.7v-5.2c0-1-0.9-1.8-1.9-1.8h-22.5c-1,0-1.6,0.8-1.6,1.8v5.2h-8.7c-1.8,0-3.3,1.5-3.3,3.3
			v25.3c0,1.8,1.5,3.3,3.3,3.3h42.3c1.8,0,3.3-1.5,3.3-3.3v-25.3C-318-491.5-319.5-493-321.3-493z M-341.8-466.5
			c-5.8,0-10.5-4.7-10.5-10.5c0-5.8,4.7-10.5,10.5-10.5s10.5,4.7,10.5,10.5C-331.2-471.2-335.9-466.5-341.8-466.5z"/>
	</g>
</g>
<g>
	<g>
		<path fill="#FFFFFF" d="M-81-12c0-0.6-0.4-1-1-1h-127c-0.6,0-1,0.4-1,1v127c0,0.6,0.4,1,1,1h127c0.6,0,1-0.4,1-1V-12z M-92,105
			h-107V-3h107V105z"/>
		<text transform="matrix(1 0 0 1 -185.5632 80.8841)"><tspan x="0" y="0" fill="#FFFFFF" font-family="'KozGoPr6N-Bold-83pv-RKSJ-H'" font-size="81.6931" letter-spacing="-4">P</tspan><tspan x="44.1" y="0.4" fill="#FFFFFF" font-family="'KozGoPr6N-Bold-83pv-RKSJ-H'" font-size="75.2367">s</tspan></text>
	</g>
	<g>
		<path fill="#FFFFFF" d="M-260.2,76.2v-13c0-0.6-0.4-1-1-1h-14c-0.6,0-1-0.4-1-1v-14c0-0.6,0.4-1,1-1h14c0.6,0,1-0.4,1-1v-13
			c0-0.8,0.9-1.3,1.6-0.8l21.4,22.1c0.5,0.4,0.5,1.2,0,1.6L-258.6,77C-259.2,77.5-260.2,77-260.2,76.2z"/>
	</g>
</g>
<text transform="matrix(1 0 0 1 -457.7156 -228.5)" fill="#FFFFFF" font-family="'MyriadPro-Semibold'" font-size="209.7545" letter-spacing="-8">Spps!</text>
<g>
	<text transform="matrix(1 0 0 1 -453.2776 -127)"><tspan x="0" y="0" fill="#FFFFFF" font-family="'MyriadPro-Semibold'" font-size="40">S</tspan><tspan x="20.1" y="0" fill="#FFFFFF" font-family="'MyriadPro-Semibold'" font-size="40">m</tspan><tspan x="53.4" y="0" fill="#FFFFFF" font-family="'MyriadPro-Semibold'" font-size="40">a</tspan><tspan x="73.1" y="0" fill="#FFFFFF" font-family="'MyriadPro-Semibold'" font-size="40">r</tspan><tspan x="87.8" y="0" fill="#FFFFFF" font-family="'MyriadPro-Semibold'" font-size="40">t</tspan><tspan x="101.3" y="0" fill="#FFFFFF" font-family="'MyriadPro-Semibold'" font-size="40">P</tspan><tspan x="122.7" y="0" fill="#FFFFFF" font-family="'MyriadPro-Semibold'" font-size="40">h</tspan><tspan x="145" y="0" fill="#FFFFFF" font-family="'MyriadPro-Semibold'" font-size="40">o</tspan><tspan x="167.1" y="0" fill="#FFFFFF" font-family="'MyriadPro-Semibold'" font-size="40">n</tspan><tspan x="189.4" y="0" fill="#FFFFFF" font-family="'MyriadPro-Semibold'" font-size="40">e </tspan><tspan x="218.3" y="0" fill="#FFFFFF" font-family="'MyriadPro-Semibold'" font-size="40">t</tspan><tspan x="231.5" y="0" fill="#FFFFFF" font-family="'MyriadPro-Semibold'" font-size="40">o </tspan><tspan x="262.4" y="0" fill="#FFFFFF" font-family="'MyriadPro-Semibold'" font-size="40">P</tspan><tspan x="283.8" y="0" fill="#FFFFFF" font-family="'MyriadPro-Semibold'" font-size="40">h</tspan><tspan x="306.1" y="0" fill="#FFFFFF" font-family="'MyriadPro-Semibold'" font-size="40">o</tspan><tspan x="328.1" y="0" fill="#FFFFFF" font-family="'MyriadPro-Semibold'" font-size="40">t</tspan><tspan x="341.3" y="0" fill="#FFFFFF" font-family="'MyriadPro-Semibold'" font-size="40">o</tspan><tspan x="363.2" y="0" fill="#FFFFFF" font-family="'MyriadPro-Semibold'" font-size="40">s</tspan><tspan x="379.3" y="0" fill="#FFFFFF" font-family="'MyriadPro-Semibold'" font-size="40">h</tspan><tspan x="401.6" y="0" fill="#FFFFFF" font-family="'MyriadPro-Semibold'" font-size="40">o</tspan><tspan x="423.6" y="0" fill="#FFFFFF" font-family="'MyriadPro-Semibold'" font-size="40">p</tspan></text>
	<g>
		<path fill="#FFFFFF" d="M-456.8-117.5c0,0,0.4-0.1,1.2-0.3c0.8-0.2,1.9-0.4,3.2-0.6c2.6-0.4,6.1-0.6,9.6-0.6c3.5,0,7,0.2,9.6,0.6
			c1.3,0.2,2.4,0.4,3.2,0.6c0.8,0.2,1.2,0.3,1.2,0.3s-0.4,0.1-1.2,0.3c-0.8,0.2-1.9,0.4-3.2,0.6c-2.6,0.4-6.1,0.6-9.6,0.6
			c-3.5,0-7-0.2-9.6-0.6c-1.3-0.2-2.4-0.4-3.2-0.6C-456.3-117.4-456.8-117.5-456.8-117.5z"/>
	</g>
	<g>
		<path fill="#FFFFFF" d="M-355.8-117.5c0,0,0.4-0.1,1.2-0.3c0.8-0.2,1.9-0.4,3.2-0.6c2.6-0.4,6.1-0.6,9.6-0.6c3.5,0,7,0.2,9.6,0.6
			c1.3,0.2,2.4,0.4,3.2,0.6c0.8,0.2,1.2,0.3,1.2,0.3s-0.4,0.1-1.2,0.3c-0.8,0.2-1.9,0.4-3.2,0.6c-2.6,0.4-6.1,0.6-9.6,0.6
			c-3.5,0-7-0.2-9.6-0.6c-1.3-0.2-2.4-0.4-3.2-0.6C-355.3-117.4-355.8-117.5-355.8-117.5z"/>
	</g>
	<g>
		<path fill="#FFFFFF" d="M-196.8-117.5c0,0,0.4-0.1,1.2-0.3c0.8-0.2,1.9-0.4,3.2-0.6c2.6-0.4,6.1-0.6,9.6-0.6c3.5,0,7,0.2,9.6,0.6
			c1.3,0.2,2.4,0.4,3.2,0.6c0.8,0.2,1.2,0.3,1.2,0.3s-0.4,0.1-1.2,0.3c-0.8,0.2-1.9,0.4-3.2,0.6c-2.6,0.4-6.1,0.6-9.6,0.6
			c-3.5,0-7-0.2-9.6-0.6c-1.3-0.2-2.4-0.4-3.2-0.6C-196.3-117.4-196.8-117.5-196.8-117.5z"/>
	</g>
	<g>
		<path fill="#FFFFFF" d="M-98.8-117.5c0,0,0.4-0.1,1.2-0.3c0.8-0.2,1.9-0.4,3.2-0.6c2.6-0.4,6.1-0.6,9.6-0.6c3.5,0,7,0.2,9.6,0.6
			c1.3,0.2,2.4,0.4,3.2,0.6c0.8,0.2,1.2,0.3,1.2,0.3s-0.4,0.1-1.2,0.3c-0.8,0.2-1.9,0.4-3.2,0.6c-2.6,0.4-6.1,0.6-9.6,0.6
			c-3.5,0-7-0.2-9.6-0.6c-1.3-0.2-2.4-0.4-3.2-0.6C-98.3-117.4-98.8-117.5-98.8-117.5z"/>
	</g>
</g>
<g>
	<path fill="#FFFFFF" d="M46.3,20c0.6,0,0.9,0.9,0.6,1.6L31.6,41.8c-0.3,0.5-0.8,0.5-1.1,0L15.1,21.6c-0.3-0.6,0-1.6,0.6-1.6H46.3z"
		/>
</g>
<g>
	<path fill="#FFFFFF" d="M60,2v58H2V2H60 M61,0H1C0.4,0,0,0.4,0,1v60c0,0.6,0.4,1,1,1h60c0.6,0,1-0.4,1-1V1C62,0.4,61.6,0,61,0L61,0
		z"/>
</g>
</svg>
